<svg width="32" height="32" viewBox="0 0 42 41" fill="none" xmlns="http://www.w3.org/2000/svg">
<path d="M41.4893 20.5C41.4893 31.8218 32.2682 41 20.8934 41C9.51858 41 0.297485 31.8218 0.297485 20.5C0.297485 9.17816 9.51858 0 20.8934 0C32.2682 0 41.4893 9.17816 41.4893 20.5Z" fill="white"/>
<path fill-rule="evenodd" clip-rule="evenodd" d="M20.8933 9.48531C19.8864 9.48531 18.9208 9.8935 18.2088 10.6201C17.4968 11.3467 17.0968 12.3322 17.0968 13.3597V14.1346H24.6898V13.3597C24.6898 12.3322 24.2898 11.3467 23.5778 10.6201C22.8659 9.8935 21.9002 9.48531 20.8933 9.48531ZM26.2084 14.1346V13.3597C26.2084 11.9211 25.6484 10.5415 24.6516 9.52425C23.6549 8.50702 22.303 7.93555 20.8933 7.93555C19.4837 7.93555 18.1318 8.50702 17.135 9.52425C16.1382 10.5415 15.5783 11.9211 15.5783 13.3597V14.1346H10.2632V29.6322C10.2632 30.4542 10.5832 31.2426 11.1528 31.8239C11.7223 32.4052 12.4949 32.7317 13.3004 32.7317H28.4863C29.2918 32.7317 30.0643 32.4052 30.6339 31.8239C31.2035 31.2426 31.5235 30.4542 31.5235 29.6322V14.1346H26.2084ZM11.7818 15.6843V29.6322C11.7818 30.0432 11.9418 30.4374 12.2266 30.728C12.5113 31.0187 12.8976 31.1819 13.3004 31.1819H28.4863C28.889 31.1819 29.2753 31.0187 29.5601 30.728C29.8449 30.4374 30.0049 30.0432 30.0049 29.6322V15.6843H11.7818Z" fill="black"/>
</svg>
