<svg width="20" height="20" viewBox="0 0 25 25" fill="none" xmlns="http://www.w3.org/2000/svg">
<path fill-rule="evenodd" clip-rule="evenodd" d="M16.407 16.2674C16.5463 16.128 16.7117 16.0173 16.8938 15.9419C17.0759 15.8664 17.2711 15.8275 17.4682 15.8275C17.6653 15.8275 17.8605 15.8664 18.0426 15.9419C18.2247 16.0173 18.3902 16.128 18.5295 16.2674L24.3044 22.0424C24.5858 22.3236 24.744 22.7052 24.7442 23.1031C24.7443 23.501 24.5864 23.8826 24.3051 24.1641C24.0239 24.4455 23.6423 24.6037 23.2444 24.6039C22.8465 24.604 22.4649 24.4461 22.1834 24.1648L16.4085 18.3899C16.269 18.2506 16.1584 18.0852 16.0829 17.9031C16.0074 17.721 15.9686 17.5258 15.9686 17.3287C15.9686 17.1316 16.0074 16.9364 16.0829 16.7543C16.1584 16.5722 16.269 16.4067 16.4085 16.2674H16.407Z" fill="#7D7D7D"/>
<path fill-rule="evenodd" clip-rule="evenodd" d="M10.4941 18.6044C11.5775 18.6044 12.6502 18.391 13.6512 17.9764C14.6521 17.5618 15.5615 16.9541 16.3276 16.188C17.0937 15.422 17.7014 14.5125 18.116 13.5116C18.5306 12.5106 18.7439 11.4379 18.7439 10.3545C18.7439 9.27108 18.5306 8.1983 18.116 7.19738C17.7014 6.19646 17.0937 5.287 16.3276 4.52093C15.5615 3.75485 14.6521 3.14717 13.6512 2.73258C12.6502 2.31798 11.5775 2.10459 10.4941 2.10459C8.30606 2.10459 6.20767 2.97377 4.66051 4.52093C3.11336 6.06808 2.24418 8.16647 2.24418 10.3545C2.24418 12.5425 3.11336 14.6409 4.66051 16.188C6.20767 17.7352 8.30606 18.6044 10.4941 18.6044V18.6044ZM20.2439 10.3545C20.2439 12.9403 19.2167 15.4202 17.3883 17.2487C15.5598 19.0771 13.0799 20.1043 10.4941 20.1043C7.90824 20.1043 5.42832 19.0771 3.59987 17.2487C1.77142 15.4202 0.744202 12.9403 0.744202 10.3545C0.744202 7.76865 1.77142 5.28874 3.59987 3.46028C5.42832 1.63183 7.90824 0.604614 10.4941 0.604614C13.0799 0.604614 15.5598 1.63183 17.3883 3.46028C19.2167 5.28874 20.2439 7.76865 20.2439 10.3545V10.3545Z" fill="#7D7D7D"/>
</svg>
