<svg width="12" height="25" viewBox="0 0 12 25" fill="none" xmlns="http://www.w3.org/2000/svg">
<path d="M3.09927 4.85703C3.09927 5.46158 3.12055 8.41933 3.12055 8.41933H0.594238V12.2088L3.09927 12.2019L3.12055 24.2088H8.17319V12.2088L11.4091 12.2019C11.4091 12.2019 11.6536 10.5377 11.8048 8.41933C11.3706 8.41933 8.17319 8.41933 8.17319 8.41933C8.17319 8.41933 8.09102 5.79518 8.09102 5.38345C8.09102 4.97065 8.63316 4.41518 9.16912 4.41518H11.8785C11.8785 3.86508 11.8785 1.96427 11.8785 0.208801C10.4827 0.208801 8.89502 0.208801 8.19472 0.208801C2.9763 0.208801 3.09927 4.25305 3.09927 4.85703V4.85703Z" fill="#373535"/>
</svg>
