<svg width="13" height="11" viewBox="0 0 13 11" fill="none" xmlns="http://www.w3.org/2000/svg">
<path d="M7.7415 0.756585L6.3895 1.87805H7.8C10.6717 1.87805 13 3.8001 13 6.17073H11.7C11.7 4.39249 9.9541 2.95122 7.8 2.95122H6.3895L7.748 4.07268L6.825 4.82927L3.9 2.41463L4.8165 1.65805L6.825 0L7.7415 0.756585ZM0 5.63415V11H10.4V5.63415H0ZM1.3 9.15415V7.48537C1.69 7.29756 2.015 7.02927 2.2425 6.70732H8.1575C8.385 7.02927 8.71 7.29756 9.1 7.48537V9.15415C8.71455 9.34195 8.39475 9.60756 8.1705 9.92683H2.2425C2.015 9.60649 1.69 9.3398 1.3 9.15415ZM5.2 9.39024C5.7382 9.39024 6.175 8.91 6.175 8.31707C6.175 7.72415 5.7382 7.2439 5.2 7.2439C4.6618 7.2439 4.225 7.72415 4.225 8.31707C4.225 8.91 4.6618 9.39024 5.2 9.39024Z" fill="black"/>
</svg>
