<svg width="11" height="13" viewBox="0 0 11 13" fill="none" xmlns="http://www.w3.org/2000/svg">
<path fill-rule="evenodd" clip-rule="evenodd" d="M0 0.458289C0 0.336743 0.0482886 0.220175 0.134243 0.13423C0.220197 0.0482838 0.336776 0 0.458333 0H10.5417C10.6632 0 10.7798 0.0482838 10.8658 0.13423C10.9517 0.220175 11 0.336743 11 0.458289C11 0.579834 10.9517 0.696402 10.8658 0.782348C10.7798 0.868294 10.6632 0.916577 10.5417 0.916577H9.625V1.83315C9.62519 2.61136 9.4052 3.37374 8.99044 4.03223C8.57568 4.69072 7.98308 5.21845 7.28108 5.55446C7.01525 5.68186 6.875 5.90001 6.875 6.09524V6.73684C6.875 6.93208 7.01617 7.15022 7.28108 7.27762C7.98308 7.61364 8.57568 8.14137 8.99044 8.79986C9.4052 9.45835 9.62519 10.2207 9.625 10.9989V11.9155H10.5417C10.6632 11.9155 10.7798 11.9638 10.8658 12.0497C10.9517 12.1357 11 12.2522 11 12.3738C11 12.4953 10.9517 12.6119 10.8658 12.6979C10.7798 12.7838 10.6632 12.8321 10.5417 12.8321H0.458333C0.336776 12.8321 0.220197 12.7838 0.134243 12.6979C0.0482886 12.6119 0 12.4953 0 12.3738C0 12.2522 0.0482886 12.1357 0.134243 12.0497C0.220197 11.9638 0.336776 11.9155 0.458333 11.9155H1.375V10.9989C1.37481 10.2207 1.5948 9.45835 2.00956 8.79986C2.42432 8.14137 3.01692 7.61364 3.71892 7.27762C3.98475 7.15022 4.125 6.93208 4.125 6.73684V6.09524C4.125 5.90001 3.98383 5.68186 3.71892 5.55446C3.01692 5.21845 2.42432 4.69072 2.00956 4.03223C1.5948 3.37374 1.37481 2.61136 1.375 1.83315V0.916577H0.458333C0.336776 0.916577 0.220197 0.868294 0.134243 0.782348C0.0482886 0.696402 0 0.579834 0 0.458289ZM2.29167 0.916577V1.83315C2.2915 2.43848 2.46262 3.0315 2.78525 3.5437C3.10788 4.0559 3.56885 4.46638 4.11492 4.72771C4.6035 4.96235 5.04167 5.45272 5.04167 6.09432V6.73776C5.04167 7.37936 4.6035 7.86973 4.11492 8.10438C3.56885 8.36571 3.10788 8.77618 2.78525 9.28838C2.46262 9.80058 2.2915 10.3936 2.29167 10.9989V11.9155H8.70833V10.9989C8.7085 10.3936 8.53738 9.80058 8.21475 9.28838C7.89212 8.77618 7.43115 8.36571 6.88508 8.10438C6.3965 7.86973 5.95833 7.38028 5.95833 6.73776V6.09432C5.95833 5.45272 6.3965 4.96235 6.88508 4.72771C7.43115 4.46638 7.89212 4.0559 8.21475 3.5437C8.53738 3.0315 8.7085 2.43848 8.70833 1.83315V0.916577H2.29167Z" fill="black"/>
</svg>
