<svg width="20" height="20" viewBox="0 0 68 41" fill="none" xmlns="http://www.w3.org/2000/svg">
<path fill-rule="evenodd" clip-rule="evenodd" d="M67.9657 37.366C67.9657 36.6214 67.6699 35.9073 67.1434 35.3808C66.6169 34.8543 65.9029 34.5586 65.1583 34.5586H48.3139C47.5693 34.5586 46.8553 34.8543 46.3288 35.3808C45.8023 35.9073 45.5065 36.6214 45.5065 37.366C45.5065 38.1105 45.8023 38.8246 46.3288 39.3511C46.8553 39.8776 47.5693 40.1734 48.3139 40.1734H65.1583C65.9029 40.1734 66.6169 39.8776 67.1434 39.3511C67.6699 38.8246 67.9657 38.1105 67.9657 37.366ZM67.9657 20.5216C67.9657 19.777 67.6699 19.0629 67.1434 18.5364C66.6169 18.0099 65.9029 17.7142 65.1583 17.7142H25.8547C25.1101 17.7142 24.3961 18.0099 23.8696 18.5364C23.3431 19.0629 23.0473 19.777 23.0473 20.5216C23.0473 21.2661 23.3431 21.9802 23.8696 22.5067C24.3961 23.0332 25.1101 23.329 25.8547 23.329H65.1583C65.9029 23.329 66.6169 23.0332 67.1434 22.5067C67.6699 21.9802 67.9657 21.2661 67.9657 20.5216ZM67.9657 3.67715C67.9657 2.93258 67.6699 2.21851 67.1434 1.69202C66.6169 1.16553 65.9029 0.869751 65.1583 0.869751H3.3955C2.65094 0.869751 1.93686 1.16553 1.41037 1.69202C0.883884 2.21851 0.588104 2.93258 0.588104 3.67715C0.588104 4.42172 0.883884 5.13579 1.41037 5.66228C1.93686 6.18877 2.65094 6.48455 3.3955 6.48455H65.1583C65.9029 6.48455 66.6169 6.18877 67.1434 5.66228C67.6699 5.13579 67.9657 4.42172 67.9657 3.67715Z" fill="black"/>
</svg>
