<svg width="18" height="18" viewBox="0 0 20 21" fill="none" xmlns="http://www.w3.org/2000/svg">
<path fill-rule="evenodd" clip-rule="evenodd" d="M10 19.6632C12.3206 19.6632 14.5462 18.7413 16.1872 17.1004C17.8281 15.4594 18.75 13.2339 18.75 10.9132C18.75 8.59256 17.8281 6.36697 16.1872 4.72602C14.5462 3.08508 12.3206 2.16321 10 2.16321C7.67936 2.16321 5.45376 3.08508 3.81282 4.72602C2.17187 6.36697 1.25 8.59256 1.25 10.9132C1.25 13.2339 2.17187 15.4594 3.81282 17.1004C5.45376 18.7413 7.67936 19.6632 10 19.6632V19.6632ZM20 10.9132C20 13.5654 18.9464 16.1089 17.0711 17.9843C15.1957 19.8596 12.6522 20.9132 10 20.9132C7.34784 20.9132 4.8043 19.8596 2.92893 17.9843C1.05357 16.1089 0 13.5654 0 10.9132C0 8.26104 1.05357 5.7175 2.92893 3.84214C4.8043 1.96678 7.34784 0.913208 10 0.913208C12.6522 0.913208 15.1957 1.96678 17.0711 3.84214C18.9464 5.7175 20 8.26104 20 10.9132V10.9132Z" fill="black"/>
<path fill-rule="evenodd" clip-rule="evenodd" d="M9.375 4.66321C9.54076 4.66321 9.69973 4.72906 9.81694 4.84627C9.93415 4.96348 10 5.12245 10 5.28821V11.8007L14.06 14.1207C14.1997 14.205 14.301 14.3406 14.342 14.4986C14.3831 14.6565 14.3608 14.8243 14.2798 14.966C14.1988 15.1077 14.0657 15.2121 13.9087 15.2569C13.7518 15.3017 13.5836 15.2833 13.44 15.2057L9.065 12.7057C8.96934 12.6511 8.88982 12.5721 8.83451 12.4768C8.77919 12.3816 8.75004 12.2734 8.75 12.1632V5.28821C8.75 5.12245 8.81585 4.96348 8.93306 4.84627C9.05027 4.72906 9.20924 4.66321 9.375 4.66321V4.66321Z" fill="black"/>
</svg>
