<svg width="22" height="22" viewBox="0 0 22 22" fill="none" xmlns="http://www.w3.org/2000/svg">
<path d="M10.9598 14.8866C10.7561 14.887 10.5587 14.816 10.4019 14.6861L5.17154 10.3274C4.99352 10.1795 4.88157 9.96686 4.86032 9.73635C4.83906 9.50584 4.91025 9.27633 5.05822 9.09831C5.20618 8.92029 5.4188 8.80834 5.64931 8.78709C5.87982 8.76584 6.10933 8.83702 6.28735 8.98499L10.9598 12.8903L15.6322 9.12447C15.7214 9.05205 15.824 8.99798 15.9341 8.96535C16.0443 8.93272 16.1597 8.92218 16.274 8.93433C16.3882 8.94648 16.4989 8.98108 16.5997 9.03615C16.7005 9.09122 16.7894 9.16567 16.8614 9.25522C16.9412 9.34486 17.0016 9.45001 17.0389 9.56409C17.0763 9.67818 17.0896 9.79874 17.0781 9.91822C17.0667 10.0377 17.0307 10.1535 16.9724 10.2584C16.9141 10.3634 16.8347 10.4551 16.7393 10.5279L11.509 14.7384C11.3476 14.8478 11.1543 14.9 10.9598 14.8866Z" fill="#E1E1E1"/>
</svg>
