<svg width="24" height="24" viewBox="0 0 49 49" fill="none" xmlns="http://www.w3.org/2000/svg">
<path fill-rule="evenodd" clip-rule="evenodd" d="M24.3587 48.7174C37.8117 48.7174 48.7174 37.8117 48.7174 24.3587C48.7174 10.9058 37.8117 0 24.3587 0C10.9058 0 0 10.9058 0 24.3587C0 37.8117 10.9058 48.7174 24.3587 48.7174ZM27.4035 15.2242C27.4035 13.5426 26.0404 12.1793 24.3587 12.1793C22.6771 12.1793 21.3139 13.5426 21.3139 15.2242V21.3139H15.2242C13.5426 21.3139 12.1793 22.6771 12.1793 24.3587C12.1793 26.0404 13.5426 27.4035 15.2242 27.4035H21.3139V33.4932C21.3139 35.1749 22.6771 36.538 24.3587 36.538C26.0404 36.538 27.4035 35.1749 27.4035 33.4932V27.4035H33.4932C35.1749 27.4035 36.538 26.0404 36.538 24.3587C36.538 22.6771 35.1749 21.3139 33.4932 21.3139H27.4035V15.2242Z" fill="#4A5568"/>
</svg>
