<svg fill="none" height="12" viewBox="0 0 14 14" width="12" xmlns="http://www.w3.org/2000/svg"><path clip-rule="evenodd" d="m13.0719.333375h-12.164921c-.214692-.000406-.411391.119454-.50947.310336-.099431.193452-.08198.426409.045049.603079l4.456712 6.27828c.00149.00216.00311.00419.0046.00636.16193.21861.24959.48349.25.75554v5.11863c-.00095.1515.05857.2972.16531.4048.10687.1074.25217.168.40368.168.07698-.0001.15327-.0154.22443-.0451l2.50433-.9548c.2243-.0686.37324-.2803.37324-.5351v-4.15643c.00041-.27205.08807-.53693.24987-.75554.00148-.00217.00311-.0042.0046-.00636l4.45687-6.27841c.127-.17654.1445-.409362.045-.602814-.0979-.191018-.2948-.310877-.5093-.310471z" fill="#4d4f56" fill-rule="evenodd"/></svg>