<svg width="24" height="24" viewBox="0 0 136 97" fill="none" xmlns="http://www.w3.org/2000/svg">
<path d="M19.329 0C8.65388 0 0 8.65388 0 19.329V28.9935H135.303V19.329C135.303 8.65388 126.649 0 115.974 0H19.329Z" fill="#EAEAEA"/>
<path d="M0 77.316V38.658H135.303V77.316C135.303 87.9914 126.649 96.645 115.974 96.645H19.329C8.65388 96.645 0 87.9914 0 77.316ZM91.8127 67.6515C89.1444 67.6515 86.9805 69.8154 86.9805 72.4838C86.9805 75.1521 89.1444 77.316 91.8127 77.316H111.142C113.81 77.316 115.974 75.1521 115.974 72.4838C115.974 69.8154 113.81 67.6515 111.142 67.6515H91.8127Z" fill="#EAEAEA"/>
</svg>
