<svg width="15" height="48" viewBox="0 0 21 38" fill="none" xmlns="http://www.w3.org/2000/svg">
<path fill-rule="evenodd" clip-rule="evenodd" d="M20.08 0.970615C20.213 1.10328 20.3185 1.26089 20.3905 1.4344C20.4625 1.60791 20.4996 1.79393 20.4996 1.98179C20.4996 2.16964 20.4625 2.35566 20.3905 2.52917C20.3185 2.70268 20.213 2.86029 20.08 2.99296L3.94982 19.1203L20.08 35.2476C20.3482 35.5158 20.4988 35.8795 20.4988 36.2587C20.4988 36.638 20.3482 37.0017 20.08 37.2699C19.8118 37.5381 19.4481 37.6888 19.0688 37.6888C18.6896 37.6888 18.3258 37.5381 18.0576 37.2699L0.919161 20.1314C0.786157 19.9988 0.680633 19.8412 0.608633 19.6676C0.536633 19.4941 0.499573 19.3081 0.499573 19.1203C0.499573 18.9324 0.536633 18.7464 0.608633 18.5729C0.680633 18.3994 0.786157 18.2418 0.919161 18.1091L18.0576 0.970615C18.1903 0.837611 18.3479 0.732087 18.5214 0.660087C18.6949 0.588087 18.881 0.551025 19.0688 0.551025C19.2567 0.551025 19.4427 0.588087 19.6162 0.660087C19.7897 0.732087 19.9473 0.837611 20.08 0.970615V0.970615Z" fill="black"/>
</svg>
