<svg width="18" height="15" viewBox="0 0 20 21" fill="none" xmlns="http://www.w3.org/2000/svg">
<path fill-rule="evenodd" clip-rule="evenodd" d="M4.375 0.275391C4.54076 0.275391 4.69973 0.341239 4.81694 0.458449C4.93415 0.575659 5 0.73463 5 0.900391V1.52539H15V0.900391C15 0.73463 15.0658 0.575659 15.1831 0.458449C15.3003 0.341239 15.4592 0.275391 15.625 0.275391C15.7908 0.275391 15.9497 0.341239 16.0669 0.458449C16.1842 0.575659 16.25 0.73463 16.25 0.900391V1.52539H17.5C18.163 1.52539 18.7989 1.78878 19.2678 2.25762C19.7366 2.72646 20 3.36235 20 4.02539V17.7754C20 18.4384 19.7366 19.0743 19.2678 19.5432C18.7989 20.012 18.163 20.2754 17.5 20.2754H2.5C1.83696 20.2754 1.20107 20.012 0.732233 19.5432C0.263392 19.0743 0 18.4384 0 17.7754V4.02539C0 3.36235 0.263392 2.72646 0.732233 2.25762C1.20107 1.78878 1.83696 1.52539 2.5 1.52539H3.75V0.900391C3.75 0.73463 3.81585 0.575659 3.93306 0.458449C4.05027 0.341239 4.20924 0.275391 4.375 0.275391V0.275391ZM1.25 5.27539V17.7754C1.25 18.1069 1.3817 18.4249 1.61612 18.6593C1.85054 18.8937 2.16848 19.0254 2.5 19.0254H17.5C17.8315 19.0254 18.1495 18.8937 18.3839 18.6593C18.6183 18.4249 18.75 18.1069 18.75 17.7754V5.27539H1.25Z" fill="black"/>
</svg>
