<svg width="15" height="48" viewBox="0 0 26 48" fill="none" xmlns="http://www.w3.org/2000/svg">
<path fill-rule="evenodd" clip-rule="evenodd" d="M1.3791 1.3448C1.54494 1.17854 1.74194 1.04664 1.95883 0.956639C2.17572 0.866639 2.40824 0.820312 2.64306 0.820312C2.87789 0.820312 3.1104 0.866639 3.32729 0.956639C3.54419 1.04664 3.74119 1.17854 3.90703 1.3448L25.3301 22.7679C25.4964 22.9337 25.6283 23.1307 25.7183 23.3476C25.8083 23.5645 25.8546 23.797 25.8546 24.0319C25.8546 24.2667 25.8083 24.4992 25.7183 24.7161C25.6283 24.933 25.4964 25.13 25.3301 25.2958L3.90703 46.7189C3.5718 47.0541 3.11714 47.2425 2.64306 47.2425C2.16899 47.2425 1.71432 47.0541 1.3791 46.7189C1.04388 46.3837 0.855549 45.929 0.855549 45.455C0.855549 44.9809 1.04388 44.5262 1.3791 44.191L21.5418 24.0319L1.3791 3.87273C1.21285 3.70689 1.08094 3.50989 0.99094 3.29299C0.90094 3.0761 0.854614 2.84359 0.854614 2.60876C0.854614 2.37394 0.90094 2.14142 0.99094 1.92453C1.08094 1.70764 1.21285 1.51063 1.3791 1.3448V1.3448Z" fill="black"/>
</svg>
