<svg width="36" height="23" viewBox="0 0 36 23" fill="none" xmlns="http://www.w3.org/2000/svg">
<path d="M8 5.75H28V17.25H8V5.75ZM33 11.5C33 13.0878 34.3431 14.375 36 14.375V20.125C36 21.7128 34.6569 23 33 23H3C1.34313 23 0 21.7128 0 20.125V14.375C1.65688 14.375 3 13.0878 3 11.5C3 9.91216 1.65688 8.625 0 8.625V2.875C0 1.28716 1.34313 0 3 0H33C34.6569 0 36 1.28716 36 2.875V8.625C34.3431 8.625 33 9.91216 33 11.5ZM30 5.27083C30 4.47691 29.3284 3.83333 28.5 3.83333H7.5C6.67156 3.83333 6 4.47691 6 5.27083V17.7292C6 18.5231 6.67156 19.1667 7.5 19.1667H28.5C29.3284 19.1667 30 18.5231 30 17.7292V5.27083Z" fill="#FCB621"/>
</svg>
