<svg width="25" height="25" viewBox="0 0 25 25" fill="none" xmlns="http://www.w3.org/2000/svg">
<path d="M12.0518 0.274902C8.7896 0.274902 8.38305 0.290654 7.10639 0.344661C5.82448 0.407669 4.95737 0.606444 4.19228 0.903481C3.40318 1.21252 2.73109 1.62282 2.06726 2.2904C1.39893 2.95424 0.984875 3.62632 0.680336 4.41542C0.383299 5.18052 0.184524 6.04762 0.121517 7.32953C0.0637593 8.60694 0.0517578 9.01274 0.0517578 12.2749C0.0517578 15.5371 0.0675098 15.9436 0.121517 17.2203C0.184524 18.4984 0.383299 19.3693 0.680336 20.1344C0.989375 20.9235 1.39968 21.5956 2.06726 22.2594C2.73109 22.9277 3.40318 23.3418 4.19228 23.6463C4.95737 23.9396 5.82823 24.1421 7.10639 24.2051C8.3838 24.2629 8.7896 24.2749 12.0518 24.2749C15.3139 24.2749 15.7205 24.2592 16.9971 24.2051C18.2753 24.1421 19.1461 23.9389 19.9112 23.6463C20.7003 23.3373 21.3724 22.927 22.0363 22.2594C22.7046 21.5956 23.1186 20.9272 23.4232 20.1344C23.7165 19.3693 23.919 18.4984 23.982 17.2203C24.0398 15.9429 24.0518 15.5371 24.0518 12.2749C24.0518 9.01274 24.036 8.60619 23.982 7.32953C23.919 6.05137 23.7157 5.17601 23.4232 4.41542C23.1141 3.62632 22.7038 2.95424 22.0363 2.2904C21.3724 1.62207 20.7041 1.20802 19.9112 0.903481C19.1461 0.606444 18.2753 0.407669 16.9971 0.344661C15.7197 0.286904 15.3139 0.274902 12.0518 0.274902V0.274902ZM12.0518 2.43517C15.2554 2.43517 15.638 2.45092 16.9041 2.50493C18.072 2.55969 18.7081 2.75471 19.1304 2.91973C19.6937 3.13801 20.0875 3.39604 20.5136 3.8176C20.9314 4.2354 21.1894 4.6337 21.4077 5.19702C21.5727 5.61932 21.7677 6.2554 21.8225 7.4233C21.8765 8.68945 21.8922 9.07275 21.8922 12.2757C21.8922 15.4786 21.8765 15.8619 21.818 17.128C21.755 18.2959 21.5599 18.932 21.3957 19.3543C21.1684 19.9176 20.9149 20.3114 20.4963 20.7375C20.074 21.1553 19.672 21.4133 19.1131 21.6316C18.6961 21.7966 18.051 21.9916 16.8786 22.0464C15.6057 22.1004 15.2307 22.1161 12.0188 22.1161C8.80685 22.1161 8.43256 22.1004 7.15815 22.0419C5.99025 21.9789 5.34592 21.7838 4.92362 21.6196C4.35355 21.3923 3.96275 21.1388 3.54419 20.7202C3.12189 20.2979 2.85336 19.8959 2.64633 19.337C2.47831 18.92 2.28629 18.2749 2.22403 17.1025C2.18127 15.8446 2.16102 15.4546 2.16102 12.2577C2.16102 9.06225 2.18127 8.67145 2.22403 7.39779C2.28629 6.2254 2.47831 5.58182 2.64633 5.16326C2.85336 4.59244 3.12264 4.20239 3.54419 3.78009C3.962 3.36229 4.35355 3.09225 4.92362 2.88073C5.34592 2.71646 5.9745 2.52143 7.1469 2.46293C8.4198 2.41717 8.79485 2.40067 12.0023 2.40067L12.0518 2.43517ZM12.0518 6.11588C8.64558 6.11588 5.89124 8.87398 5.89124 12.2764C5.89124 15.6826 8.64933 18.4369 12.0518 18.4369C15.4579 18.4369 18.2123 15.6788 18.2123 12.2764C18.2123 8.87023 15.4542 6.11588 12.0518 6.11588V6.11588ZM12.0518 16.2767C9.84048 16.2767 8.05151 14.4877 8.05151 12.2764C8.05151 10.0651 9.84048 8.27615 12.0518 8.27615C14.263 8.27615 16.052 10.0651 16.052 12.2764C16.052 14.4877 14.263 16.2767 12.0518 16.2767V16.2767ZM19.9007 5.86985C19.9007 6.6672 19.2519 7.31078 18.4583 7.31078C17.661 7.31078 17.0174 6.66645 17.0174 5.86985C17.0174 5.077 17.6655 4.43192 18.4583 4.43192C19.2512 4.43192 19.9007 5.077 19.9007 5.86985V5.86985Z" fill="#373535"/>
</svg>
