<svg width="20" height="20" viewBox="0 0 20 20" fill="none" xmlns="http://www.w3.org/2000/svg">
<path fill-rule="evenodd" clip-rule="evenodd" d="M10 20C10 20 18 12.8925 18 7.50004C18 5.51088 17.1571 3.60323 15.6569 2.1967C14.1566 0.790176 12.1218 0 10 0C7.87826 0 5.84344 0.790176 4.34314 2.1967C2.84286 3.60323 2 5.51088 2 7.50004C2 12.8925 10 20 10 20ZM10 11.25C11.0609 11.25 12.0783 10.8549 12.8284 10.1517C13.5786 9.44839 14 8.49454 14 7.50004C14 6.50545 13.5786 5.55162 12.8284 4.84836C12.0783 4.14509 11.0609 3.75 10 3.75C8.93914 3.75 7.92172 4.14509 7.17158 4.84836C6.42142 5.55162 6 6.50545 6 7.50004C6 8.49454 6.42142 9.44839 7.17158 10.1517C7.92172 10.8549 8.93914 11.25 10 11.25Z" fill="black"/>
</svg>
