<svg width="12" height="14" viewBox="0 0 12 14" fill="none" xmlns="http://www.w3.org/2000/svg">
<path d="M9.84683 0H5.62808V0.9375H9.84683C9.97115 0.9375 10.0904 0.986886 10.1783 1.07479C10.2662 1.1627 10.3156 1.28193 10.3156 1.40625V11.7188C10.3156 11.8431 10.2662 11.9623 10.1783 12.0502C10.0904 12.1381 9.97115 12.1875 9.84683 12.1875H5.62808V13.125H9.84683C10.2198 13.125 10.5775 12.9768 10.8412 12.7131C11.1049 12.4494 11.2531 12.0917 11.2531 11.7188V1.40625C11.2531 1.03329 11.1049 0.675604 10.8412 0.411881C10.5775 0.148158 10.2198 0 9.84683 0Z" fill="#565656"/>
<path d="M8.24371 7.03125V6.09375H1.40933L3.28433 4.21875L2.61871 3.53906L0.274956 5.88281C0.187791 5.96988 0.118642 6.07328 0.0714628 6.18709C0.0242837 6.3009 0 6.42289 0 6.54609C0 6.6693 0.0242837 6.79129 0.0714628 6.9051C0.118642 7.01891 0.187791 7.12231 0.274956 7.20937L2.61871 9.55312L3.28433 8.90625L1.40933 7.03125H8.24371Z" fill="#565656"/>
</svg>
