<?xml version="1.0" encoding="utf-8"?>
<!-- Generator: Adobe Illustrator 22.1.0, SVG Export Plug-In . SVG Version: 6.00 Build 0)  -->
<svg version="1.1" id="Layer_1" xmlns="http://www.w3.org/2000/svg" xmlns:xlink="http://www.w3.org/1999/xlink" x="0px" y="0px"
	 viewBox="0 0 478 86" style="enable-background:new 0 0 478 86;" xml:space="preserve">
<style type="text/css">
	.st0{fill:#FFFFFF;}
	.st1{fill:#FFFFFF;stroke:#808080;stroke-width:0.216;stroke-miterlimit:5;}
	.st2{fill-rule:evenodd;clip-rule:evenodd;fill:url(#SVGID_1_);}
	.st3{fill-rule:evenodd;clip-rule:evenodd;fill:#FBAC01;}
	.st4{fill-rule:evenodd;clip-rule:evenodd;fill:url(#SVGID_2_);}
	.st5{fill-rule:evenodd;clip-rule:evenodd;fill:url(#SVGID_3_);}
	.st6{fill-rule:evenodd;clip-rule:evenodd;fill:url(#SVGID_4_);}
	.st7{fill-rule:evenodd;clip-rule:evenodd;fill:url(#SVGID_5_);}
	.st8{fill-rule:evenodd;clip-rule:evenodd;fill:url(#SVGID_6_);}
	.st9{fill-rule:evenodd;clip-rule:evenodd;fill:url(#SVGID_7_);}
	.st10{fill-rule:evenodd;clip-rule:evenodd;fill:url(#SVGID_8_);}
	.st11{fill-rule:evenodd;clip-rule:evenodd;fill:url(#SVGID_9_);}
	.st12{fill:none;stroke:#FFFFFF;stroke-width:2;stroke-linecap:round;stroke-linejoin:round;stroke-miterlimit:10;}
	.st13{fill-rule:evenodd;clip-rule:evenodd;fill:url(#SVGID_10_);}
	.st14{fill-rule:evenodd;clip-rule:evenodd;fill:url(#SVGID_11_);}
	.st15{fill-rule:evenodd;clip-rule:evenodd;fill:url(#SVGID_12_);}
	.st16{fill-rule:evenodd;clip-rule:evenodd;fill:url(#SVGID_13_);}
	.st17{fill-rule:evenodd;clip-rule:evenodd;fill:url(#SVGID_14_);}
	.st18{fill-rule:evenodd;clip-rule:evenodd;fill:url(#SVGID_15_);}
</style>
<path class="st0" d="M27-122.2L27-122.2c-4.5,0-8.9,0.5-13.3,0.5c-4.3,0-9.1-0.2-13.1-0.6v2.3l4,0.3v54.4l-4,0.4v2.3
	c5-0.4,8.7-0.5,13.1-0.5c4.3,0,8.9,0.2,12.9,0.5v-2.3l-3-0.3v-16h4.3c16.7,0,23.4-8.9,23.4-20C51.3-113.1,44.3-122.2,27-122.2z
	 M27.9-83.2h-4.3v-36.3l3.5-0.4c5.6,0,6.9,3.5,7.1,18.8C34.1-86.4,32.8-83.2,27.9-83.2z M105.6-65.2l3,0.3v2.3c-8-0.7-16-0.7-24,0
	v-2.3c1-0.1,2.3-0.3,3.5-0.3l-0.4-32.6c0-2.8-1.3-5-4.6-5c-3.7,0-6.6,2.3-7.6,3.9v33.7l3,0.3v2.3c-8-0.7-16-0.7-24,0v-2.3
	c1-0.1,2-0.3,3-0.3v-54.4c-1,0-2-0.1-3-0.3v-2.3c6,0.6,12.5,0,19-6h2v27.6c3-3.8,8.3-8.6,16.3-8.6c8.6,0,13.7,5.5,13.7,15.8
	C105.6-93.3,105.6-65.2,105.6-65.2z M114.9-121.3c0-5,4.1-8.9,9.2-8.9c5,0,9.2,3.9,9.2,8.9c0,5.1-4.1,9.1-9.2,9.1
	C118.9-112.2,114.9-116.2,114.9-121.3z M133.6-65.2l3,0.3v2.3c-8-0.7-16-0.7-24,0v-2.3c1-0.1,2-0.3,3-0.3v-39.4c-1,0-2-0.1-3-0.3
	v-2.3c6,0.3,12.5,0,19-2h2L133.6-65.2L133.6-65.2z M161.6-65.2l4,0.3v2.3c-9-0.7-17-0.7-25,0v-2.3c1-0.1,2-0.3,4-0.3v-54.4
	c-2,0-3-0.1-4-0.3v-2.3c6,0.6,12.8,0,19.3-6h1.7V-65.2z M192.8-109.5c-14.6,0-23.8,9.4-23.8,23.9c0,14.5,9.3,23.6,23.8,23.6
	c14.5,0,23.7-9.1,23.7-23.6C216.5-100.2,207.3-109.5,192.8-109.5z M192.8-64c-4.7,0-6-3.9-6-21.6c0-18.2,1.4-22,6-22s5.9,3.9,5.9,22
	C198.6-67.9,197.5-64,192.8-64z M257.8-76.6c0,9.1-5.9,15-19.1,15c-7.1,0-11-2.3-13.4-3.1l-0.2,2.5h-2.5c0.3-3,0.5-5.7,0.5-8.4
	c0-2.9-0.3-5.6-0.5-8.6h2.5c0,0,0.5,2.9,0.5,4.5c0,3.4,4,11,12.1,11c3.6,0,5.8-2.6,5.8-5.7c0-10.7-22-9.9-22-25.2
	c0-9.2,5.7-15,19.2-15c5.8,0,9.9,0.8,12.3,1.6l0.1-1.2h2.6l0,2.4v0.2c0,2.1-0.5,4-0.5,6.1c0,2.8,0.1,5.3,0.5,8.3H253
	c-0.2-1-0.3-1.9-0.4-2.9c-0.1-0.1-0.1-0.3-0.1-0.5c0-2.9-2.3-12.1-11.2-12.1c-5.2,0-6.5,2.8-6.5,5.7
	C234.9-91.3,257.8-93.4,257.8-76.6z M286.1-109.5c-14.6,0-23.9,9.4-23.9,23.9c0,14.5,9.3,23.6,23.9,23.6c14.5,0,23.7-9.1,23.7-23.6
	C309.8-100.2,300.6-109.5,286.1-109.5z M286.1-64c-4.7,0-6-3.9-6-21.6c0-18.2,1.4-22,6-22s5.9,3.9,5.9,22
	C292-67.9,290.8-64,286.1-64z M345.5-109.5c-7.3,0-11.9,6-11.9,6v-5.7h-1.9c-6.5,2-13.1,2.3-19.1,2v2.3c1,0.2,2,0.3,3,0.3v56.9
	c-1,0-2,0.2-3,0.3v2.3c8-0.7,16-0.7,24,0v-2.3l-3-0.3V-68c0,0,4.6,6,11.9,6c10.9,0,17.1-9.9,17.1-23.7v-0.1v-0.1
	C362.6-99.6,356.4-109.5,345.5-109.5z M339.1-67.1c-4.9,0-5.4-5.8-5.4-5.8v-25.9c0,0,0.5-5.8,5.4-5.8c5,0,6.1,6.4,6.1,18.7
	S344-67.1,339.1-67.1z M416.6-65.2l4,0.3v2.3c-8-0.7-17-0.7-25,0v-2.3c1-0.1,2.5-0.3,3.7-0.3l-0.2-32.6c0-2.8-1.4-4.9-4.7-4.9
	c-3.7,0-6.8,2.3-7.8,3.9v33.7l4,0.3v2.3c-8-0.7-17-0.7-25,0v-2.3c1-0.1,3-0.3,4-0.3v-54.4c-1,0-3-0.1-4-0.3v-2.3c7,0.6,13,0,19.5-6
	h1.5v27.6c3-3.8,8.3-8.6,16.3-8.6c8.6,0,13.7,5.5,13.7,15.8L416.6-65.2L416.6-65.2z M463.6-105.7c-1,0.3-1.9,0.4-3.2,0.4l-8.7,26.7
	l-5.1,15.7c-4,11.2-8.3,13.9-14.8,13.9c-3.7,0-6.8-2.8-6.8-6.4c0-3.4,2.6-6.2,6.3-6.2c3.1,0,5.6,2,6.2,4.9c0,0,0.3,0.9,1.8,0.9
	c2.2,0,4-2.1,4-5.6c0-1.4-0.3-2-0.3-2h-3.6l-16.8-42.5l-2.9-0.1v-2.3c8,0.7,17,0.7,25,0v2.3c-1,0.1-2.6,0.3-3.9,0.4l9.7,23.3
	l7.6-23.2c-1.3-0.1-2.4-0.2-3.4-0.4v-2.3c2,0.5,7,0.5,9,0L463.6-105.7L463.6-105.7z M477.4-70c0,4.5-3.7,8-8.2,8s-8.1-3.5-8.1-8
	c0-4.5,3.6-7.9,8.1-7.9S477.4-74.5,477.4-70z"/>
<g>
	<g>
		<path class="st1" d="M27.3,38.5v2.4h-0.2c-0.1-0.5-0.2-0.8-0.3-1.1c-0.2-0.3-0.4-0.5-0.7-0.7c-0.3-0.2-0.6-0.2-1-0.2
			c-0.4,0-0.7,0.1-0.9,0.3c-0.2,0.2-0.4,0.5-0.4,0.7c0,0.2,0.1,0.4,0.2,0.6c0.2,0.3,0.7,0.6,1.6,1c0.7,0.3,1.1,0.6,1.4,0.8
			c0.2,0.2,0.4,0.4,0.6,0.7c0.1,0.3,0.2,0.5,0.2,0.8c0,0.5-0.2,1-0.6,1.4c-0.4,0.4-1,0.6-1.6,0.6c-0.2,0-0.4,0-0.6,0
			c-0.1,0-0.3-0.1-0.7-0.2c-0.3-0.1-0.6-0.2-0.7-0.2c-0.1,0-0.2,0-0.2,0.1c-0.1,0.1-0.1,0.2-0.1,0.3H23v-2.4h0.2
			c0.1,0.5,0.2,0.9,0.4,1.1c0.2,0.2,0.4,0.5,0.7,0.6c0.3,0.2,0.7,0.2,1.1,0.2c0.4,0,0.8-0.1,1.1-0.3c0.3-0.2,0.4-0.5,0.4-0.8
			c0-0.2,0-0.3-0.1-0.5c-0.1-0.2-0.3-0.3-0.5-0.5c-0.1-0.1-0.5-0.3-1.1-0.7c-0.6-0.3-1.1-0.6-1.3-0.8c-0.3-0.2-0.5-0.4-0.6-0.7
			c-0.1-0.2-0.2-0.5-0.2-0.8c0-0.5,0.2-0.9,0.6-1.3c0.4-0.4,0.9-0.5,1.5-0.5c0.4,0,0.8,0.1,1.2,0.3c0.2,0.1,0.3,0.1,0.4,0.1
			c0.1,0,0.2,0,0.2-0.1c0.1-0.1,0.1-0.2,0.1-0.3H27.3z"/>
		<path class="st1" d="M32.4,38.5c0.9,0,1.8,0.3,2.5,1c0.7,0.7,1,1.5,1,2.6c0,1.1-0.3,1.9-1,2.6c-0.7,0.7-1.5,1-2.5,1
			c-1,0-1.8-0.3-2.5-1c-0.7-0.7-1-1.6-1-2.6c0-1.1,0.4-2,1.2-2.7C30.6,38.8,31.4,38.5,32.4,38.5z M32.3,38.9c-0.7,0-1.2,0.2-1.6,0.7
			C30.2,40.2,30,41,30,42.1c0,1.1,0.3,2,0.8,2.6c0.4,0.5,0.9,0.7,1.5,0.7c0.7,0,1.2-0.3,1.7-0.8c0.4-0.5,0.7-1.3,0.7-2.4
			c0-1.2-0.2-2.1-0.7-2.7C33.5,39.1,33,38.9,32.3,38.9z"/>
		<path class="st1" d="M41.5,38.9v-0.2h2.6v0.2h-0.3c-0.3,0-0.5,0.1-0.7,0.3c-0.1,0.1-0.1,0.4-0.1,0.7v2.8c0,0.7-0.1,1.2-0.2,1.6
			c-0.1,0.4-0.4,0.7-0.9,1c-0.4,0.3-1,0.4-1.7,0.4c-0.8,0-1.4-0.1-1.8-0.4c-0.4-0.3-0.7-0.6-0.9-1.1c-0.1-0.3-0.2-0.9-0.2-1.7v-2.7
			c0-0.4-0.1-0.7-0.2-0.8c-0.1-0.1-0.3-0.2-0.6-0.2h-0.3v-0.2h3.1v0.2h-0.3c-0.3,0-0.5,0.1-0.6,0.3c-0.1,0.1-0.1,0.4-0.1,0.8v3
			c0,0.3,0,0.6,0.1,0.9c0.1,0.3,0.1,0.6,0.3,0.8c0.1,0.2,0.3,0.4,0.6,0.5c0.3,0.1,0.6,0.2,0.9,0.2c0.5,0,0.9-0.1,1.3-0.3
			c0.4-0.2,0.6-0.5,0.8-0.8c0.1-0.3,0.2-0.8,0.2-1.6v-2.8c0-0.4,0-0.7-0.2-0.8c-0.1-0.2-0.3-0.2-0.6-0.2H41.5z"/>
		<path class="st1" d="M50.5,43.7l0.2,0L50,45.6h-5.6v-0.2h0.3c0.3,0,0.5-0.1,0.7-0.3c0.1-0.1,0.1-0.4,0.1-0.8v-4.5
			c0-0.4,0-0.7-0.2-0.8c-0.1-0.2-0.3-0.2-0.6-0.2h-0.3v-0.2h3.3v0.2c-0.4,0-0.7,0-0.8,0.1c-0.2,0.1-0.3,0.2-0.3,0.3
			c-0.1,0.1-0.1,0.4-0.1,0.8v4.4c0,0.3,0,0.5,0.1,0.6c0,0.1,0.1,0.1,0.2,0.2c0.1,0,0.4,0.1,0.8,0.1h0.5c0.6,0,0.9,0,1.2-0.1
			c0.2-0.1,0.4-0.2,0.6-0.4C50.1,44.5,50.3,44.1,50.5,43.7z"/>
		<path class="st1" d="M57.3,38.5c0.9,0,1.8,0.3,2.5,1c0.7,0.7,1,1.5,1,2.6c0,1.1-0.3,1.9-1,2.6c-0.7,0.7-1.5,1-2.5,1
			c-1,0-1.8-0.3-2.5-1c-0.7-0.7-1-1.6-1-2.6c0-1.1,0.4-2,1.2-2.7C55.5,38.8,56.3,38.5,57.3,38.5z M57.2,38.9c-0.7,0-1.2,0.2-1.6,0.7
			c-0.5,0.6-0.7,1.4-0.7,2.5c0,1.1,0.3,2,0.8,2.6c0.4,0.5,0.9,0.7,1.5,0.7c0.7,0,1.2-0.3,1.7-0.8c0.4-0.5,0.7-1.3,0.7-2.4
			c0-1.2-0.2-2.1-0.7-2.7C58.4,39.1,57.8,38.9,57.2,38.9z"/>
		<path class="st1" d="M63.4,39.1v2.7h1.3c0.3,0,0.5-0.1,0.7-0.2c0.1-0.1,0.2-0.4,0.3-0.8h0.2v2.4h-0.2c0-0.3,0-0.5-0.1-0.6
			c-0.1-0.1-0.2-0.2-0.3-0.3c-0.1-0.1-0.3-0.1-0.5-0.1h-1.3v2.2c0,0.4,0,0.6,0.1,0.7c0,0.1,0.1,0.2,0.2,0.2c0.2,0.1,0.3,0.1,0.5,0.1
			h0.3v0.2h-3.1v-0.2h0.3c0.3,0,0.5-0.1,0.7-0.3c0.1-0.1,0.1-0.4,0.1-0.8v-4.5c0-0.4,0-0.6-0.1-0.7c0-0.1-0.1-0.2-0.2-0.2
			c-0.2-0.1-0.3-0.1-0.5-0.1h-0.3v-0.2h5.4l0.1,1.5h-0.2c-0.1-0.3-0.2-0.6-0.3-0.7c-0.1-0.2-0.3-0.3-0.5-0.3
			c-0.2-0.1-0.5-0.1-0.8-0.1H63.4z"/>
	</g>
	<linearGradient id="SVGID_1_" gradientUnits="userSpaceOnUse" x1="41.9779" y1="29.6536" x2="41.7222" y2="28.8225">
		<stop  offset="0" style="stop-color:#FFCD23"/>
		<stop  offset="1" style="stop-color:#FAA41F"/>
	</linearGradient>
	<path class="st2" d="M61.3,20.7c0,0-4.2,5.5-8,6.5c-8.8,2.1-17.1,4.8-25,8.4c-2.1,0.1-4.2,0.4-6.3,1c8.4-6,20-10.1,32.8-13.5
		C56.5,22.6,59.7,22,61.3,20.7z"/>
	<path class="st3" d="M23.6,29c-2.6,3-4.7,6.1-6.4,9.3c2.5-2.7,5.4-5.2,8.9-7.1c3.4-2.3,15.2-5.4,24.6-8.1l0-0.1
		C41,25.1,29.6,26.1,23.6,29z"/>
	<linearGradient id="SVGID_2_" gradientUnits="userSpaceOnUse" x1="63.7669" y1="27.1545" x2="64.4602" y2="13.6148">
		<stop  offset="0" style="stop-color:#FFCD23"/>
		<stop  offset="1" style="stop-color:#FDB528"/>
	</linearGradient>
	<path class="st4" d="M71.6,4.4l-0.3,0.6c-1.2,4.7-3,9.2-7,13.3c-1.5,6.6-3.9,12.5-7.7,17.5c5-3,8.6-8,10.9-15
		C69.6,15.3,70.8,9.8,71.6,4.4z"/>
	<linearGradient id="SVGID_3_" gradientUnits="userSpaceOnUse" x1="42.8621" y1="65.3302" x2="25.9504" y2="59.7364">
		<stop  offset="0" style="stop-color:#FFCD23"/>
		<stop  offset="1" style="stop-color:#FAA41F"/>
	</linearGradient>
	<path class="st5" d="M75.9,61.5c0.1,0.1,0.1,0.3,0,0.3L26,62.2c13.5,5.9,20.6,12.4,21.7,19.4c-2.9-8.4-11.4-14.8-24.8-19.5
		c-0.2-0.2-0.3-0.6,0.1-0.9L75.9,61.5z"/>
	<linearGradient id="SVGID_4_" gradientUnits="userSpaceOnUse" x1="22.4401" y1="60.8917" x2="22.1893" y2="46.215">
		<stop  offset="0" style="stop-color:#FFCD23"/>
		<stop  offset="1" style="stop-color:#FAA41F"/>
	</linearGradient>
	<path class="st6" d="M22,46.6l2,0l0,10.1c0,1.9-1,3.1-3,3.8l-0.4-0.6c0.9-0.6,1.4-1.5,1.3-2.8L22,46.6z"/>
	<linearGradient id="SVGID_5_" gradientUnits="userSpaceOnUse" x1="29.904" y1="60.7846" x2="29.6541" y2="46.164">
		<stop  offset="0" style="stop-color:#FFCD23"/>
		<stop  offset="1" style="stop-color:#FAA41F"/>
	</linearGradient>
	<path class="st7" d="M30.9,46.4L29,46.7l-4,10.5l1.3,0l1.3-3.5l3.8,0l1.2,3.5l2.2,0L30.9,46.4L30.9,46.4z M29.4,48.1l1.6,4.6
		l-3.2,0L29.4,48.1z"/>
	<linearGradient id="SVGID_6_" gradientUnits="userSpaceOnUse" x1="44.7849" y1="60.3768" x2="44.5404" y2="46.067">
		<stop  offset="0" style="stop-color:#FFCD23"/>
		<stop  offset="1" style="stop-color:#FAA41F"/>
	</linearGradient>
	<path class="st8" d="M35.7,46.6h2l0,4.9c1.8-2.1,3.6-4.7,4.8-4.8l1.4,0l0,0.6c-0.4,0-0.8,0-1.1,0.3c-1.1,0.9-2.1,1.9-3,3
		c1.8,3.7,3.3,5.9,4.6,5.8l3.8-9.8l1.9-0.3l3.8,10.8l-2.2,0l-1.2-3.5l-3.8,0.1l-1.2,3.5c-0.4,0.1-0.7-0.1-1.1,0
		c-1,0.2-1.9,0.2-2.6-0.1c-1.1-0.6-2.2-2.4-3.3-4.9l-0.8,1l0,4l-2.1,0L35.7,46.6L35.7,46.6z M48.7,48.1L47,52.6l3.2,0L48.7,48.1z"/>
	<linearGradient id="SVGID_7_" gradientUnits="userSpaceOnUse" x1="58.9858" y1="60.2798" x2="58.7352" y2="45.6151">
		<stop  offset="0" style="stop-color:#FFCD23"/>
		<stop  offset="1" style="stop-color:#FAA41F"/>
	</linearGradient>
	<path class="st9" d="M54.9,46.7l-0.1,10.5h2.1l0-4.3h0.7c1.3,3.2,2.6,5.1,5.4,4.2l0-0.7c-1.2,0.2-2.3-1.5-3.5-4
		c1.3-0.6,1.9-1.7,1.9-3.2c-0.1-1.7-1-2.8-3.1-2.8C57.3,46.5,56.1,46.5,54.9,46.7L54.9,46.7z M56.9,47.6c1.8-0.2,2.6,0.6,2.5,2.3
		c0,1.5-0.9,2.1-2.5,2L56.9,47.6z"/>
	<linearGradient id="SVGID_8_" gradientUnits="userSpaceOnUse" x1="75.861" y1="60.0063" x2="75.6111" y2="45.3858">
		<stop  offset="0" style="stop-color:#FFCD23"/>
		<stop  offset="1" style="stop-color:#FAA41F"/>
	</linearGradient>
	<path class="st10" d="M76.9,46.4l-1.9,0.3l-4,10.5l1.3,0l1.3-3.5l3.8,0l1.2,3.5l2.2,0L76.9,46.4L76.9,46.4z M75.4,48.1l1.6,4.6
		l-3.2,0L75.4,48.1z"/>
	<linearGradient id="SVGID_9_" gradientUnits="userSpaceOnUse" x1="67.176" y1="60.0925" x2="66.9262" y2="45.4745">
		<stop  offset="0" style="stop-color:#FFCD23"/>
		<stop  offset="1" style="stop-color:#FAA41F"/>
	</linearGradient>
	<polygon class="st11" points="63,46.6 62.9,47.6 65.9,47.7 65.9,57.2 68,57.2 67.9,47.6 70.9,47.7 71.1,46.6 	"/>
</g>
<line class="st12" x1="112.6" y1="6.9" x2="112.6" y2="77.9"/>
<g>
	<g>
		<path class="st1" d="M163.5,4.5v5.7H163c-0.2-1.1-0.4-2-0.8-2.6c-0.4-0.6-1-1.2-1.7-1.5c-0.7-0.4-1.5-0.6-2.3-0.6
			c-0.9,0-1.6,0.3-2.2,0.8c-0.6,0.5-0.9,1.1-0.9,1.8c0,0.5,0.2,1,0.5,1.4c0.5,0.6,1.8,1.4,3.7,2.4c1.6,0.8,2.7,1.5,3.3,1.9
			c0.6,0.4,1,1,1.4,1.6c0.3,0.6,0.5,1.2,0.5,1.9c0,1.2-0.5,2.3-1.5,3.2c-1,0.9-2.3,1.4-3.9,1.4c-0.5,0-1,0-1.4-0.1
			c-0.3,0-0.8-0.2-1.6-0.4c-0.8-0.3-1.3-0.4-1.6-0.4c-0.2,0-0.4,0.1-0.5,0.2c-0.1,0.1-0.2,0.4-0.3,0.8h-0.5v-5.6h0.5
			c0.2,1.2,0.5,2.1,0.9,2.7c0.4,0.6,0.9,1.1,1.7,1.5c0.8,0.4,1.6,0.6,2.5,0.6c1.1,0,1.9-0.3,2.5-0.8c0.6-0.5,0.9-1.2,0.9-1.9
			c0-0.4-0.1-0.8-0.3-1.2c-0.2-0.4-0.6-0.8-1.1-1.2c-0.3-0.2-1.2-0.8-2.7-1.5c-1.5-0.8-2.5-1.4-3.1-1.9c-0.6-0.5-1.1-1-1.4-1.6
			c-0.3-0.6-0.5-1.2-0.5-1.9c0-1.2,0.5-2.2,1.4-3.1c0.9-0.9,2.2-1.3,3.6-1.3c0.9,0,1.9,0.2,2.9,0.6c0.5,0.2,0.8,0.3,1,0.3
			c0.2,0,0.4-0.1,0.5-0.2c0.1-0.1,0.2-0.4,0.3-0.8H163.5z"/>
		<path class="st1" d="M175.5,4.5c2.2,0,4.2,0.8,5.8,2.4c1.6,1.6,2.5,3.6,2.5,6.1c0,2.5-0.8,4.6-2.5,6.2c-1.6,1.6-3.6,2.5-6,2.5
			c-2.4,0-4.4-0.8-6-2.4c-1.6-1.6-2.4-3.7-2.4-6.2c0-2.6,0.9-4.7,2.8-6.4C171.3,5.3,173.2,4.5,175.5,4.5z M175.2,5.4
			c-1.5,0-2.8,0.5-3.7,1.6c-1.2,1.4-1.7,3.3-1.7,6c0,2.7,0.6,4.8,1.8,6.2c0.9,1.1,2.1,1.6,3.7,1.6c1.6,0,2.9-0.6,4-1.8
			c1.1-1.2,1.6-3.1,1.6-5.7c0-2.8-0.6-4.9-1.7-6.3C178.2,6,176.9,5.4,175.2,5.4z"/>
		<path class="st1" d="M197.1,5.4V4.9h6.1v0.4h-0.6c-0.7,0-1.2,0.3-1.6,0.8c-0.2,0.3-0.3,0.8-0.3,1.7v6.7c0,1.6-0.2,2.9-0.5,3.8
			c-0.3,0.9-1,1.7-2,2.3c-1,0.7-2.4,1-4.1,1c-1.9,0-3.3-0.3-4.3-0.9c-1-0.6-1.7-1.5-2.1-2.5c-0.3-0.7-0.4-2.1-0.4-4.1V7.8
			c0-1-0.1-1.7-0.4-2c-0.3-0.3-0.8-0.5-1.4-0.5h-0.6V4.9h7.4v0.4h-0.7c-0.7,0-1.2,0.2-1.5,0.6c-0.2,0.3-0.3,0.9-0.3,1.8V15
			c0,0.6,0.1,1.4,0.2,2.2c0.1,0.8,0.3,1.5,0.7,1.9c0.3,0.5,0.8,0.8,1.4,1.1c0.6,0.3,1.3,0.4,2.2,0.4c1.1,0,2.1-0.2,3-0.7
			c0.9-0.5,1.5-1.1,1.8-1.8c0.3-0.7,0.5-2,0.5-3.7V7.8c0-1-0.1-1.7-0.4-1.9c-0.3-0.4-0.8-0.5-1.5-0.5H197.1z"/>
		<path class="st1" d="M218.4,16.8l0.4,0.1l-1.5,4.5H204v-0.4h0.6c0.7,0,1.2-0.2,1.6-0.7c0.2-0.3,0.3-0.9,0.3-1.8V7.8
			c0-1-0.1-1.7-0.4-1.9c-0.3-0.4-0.8-0.5-1.5-0.5H204V4.9h7.8v0.4c-0.9,0-1.6,0.1-1.9,0.2c-0.4,0.2-0.6,0.4-0.8,0.6
			c-0.1,0.3-0.2,0.9-0.2,1.9v10.3c0,0.7,0.1,1.1,0.2,1.4c0.1,0.2,0.3,0.3,0.5,0.4c0.2,0.1,0.9,0.1,2,0.1h1.3c1.3,0,2.2-0.1,2.8-0.3
			c0.5-0.2,1-0.5,1.5-1C217.5,18.6,217.9,17.8,218.4,16.8z"/>
		<path class="st1" d="M234.4,4.5c2.2,0,4.2,0.8,5.8,2.4c1.6,1.6,2.5,3.6,2.5,6.1c0,2.5-0.8,4.6-2.5,6.2c-1.6,1.6-3.6,2.5-6,2.5
			c-2.4,0-4.4-0.8-6-2.4c-1.6-1.6-2.4-3.7-2.4-6.2c0-2.6,0.9-4.7,2.8-6.4C230.2,5.3,232.1,4.5,234.4,4.5z M234.1,5.4
			c-1.5,0-2.8,0.5-3.7,1.6c-1.2,1.4-1.7,3.3-1.7,6c0,2.7,0.6,4.8,1.8,6.2c0.9,1.1,2.1,1.6,3.7,1.6c1.6,0,2.9-0.6,4-1.8
			c1.1-1.2,1.6-3.1,1.6-5.7c0-2.8-0.6-4.9-1.7-6.3C237.1,6,235.8,5.4,234.1,5.4z"/>
		<path class="st1" d="M248.9,5.8v6.5h3.1c0.7,0,1.2-0.2,1.6-0.5c0.3-0.3,0.6-0.9,0.7-1.8h0.5v5.6h-0.5c0-0.6-0.1-1.1-0.3-1.4
			c-0.2-0.3-0.4-0.5-0.7-0.7c-0.3-0.1-0.7-0.2-1.3-0.2h-3.1v5.2c0,0.8,0.1,1.4,0.2,1.7c0.1,0.2,0.3,0.4,0.5,0.5
			c0.4,0.2,0.8,0.3,1.2,0.3h0.6v0.4H244v-0.4h0.6c0.7,0,1.2-0.2,1.5-0.6c0.2-0.3,0.3-0.9,0.3-1.9V7.8c0-0.8-0.1-1.4-0.2-1.6
			c-0.1-0.2-0.3-0.4-0.5-0.5c-0.4-0.2-0.8-0.3-1.2-0.3H244V4.9h12.8l0.2,3.6h-0.4c-0.2-0.8-0.5-1.3-0.8-1.7
			c-0.3-0.4-0.7-0.6-1.1-0.8c-0.4-0.2-1.1-0.2-2-0.2H248.9z"/>
	</g>
	<linearGradient id="SVGID_10_" gradientUnits="userSpaceOnUse" x1="153.7325" y1="82.8288" x2="152.7512" y2="25.4074">
		<stop  offset="0" style="stop-color:#FFCD23"/>
		<stop  offset="1" style="stop-color:#FAA41F"/>
	</linearGradient>
	<path class="st13" d="M151.9,27.1l7.9,0l-0.1,39.6c-0.1,7.3-3.9,12.3-11.7,14.8l-1.4-2.4c3.5-2.4,5.4-5.9,5.1-10.9L151.9,27.1z"/>
	<linearGradient id="SVGID_11_" gradientUnits="userSpaceOnUse" x1="182.9343" y1="82.4095" x2="181.9568" y2="25.208">
		<stop  offset="0" style="stop-color:#FFCD23"/>
		<stop  offset="1" style="stop-color:#FAA41F"/>
	</linearGradient>
	<path class="st14" d="M186.9,26l-7.6,1.4l-15.5,40.9l4.9,0l4.9-13.6l14.8-0.1l4.6,13.7l8.5,0.1L186.9,26L186.9,26z M181,32.7
		l6.2,17.9l-12.3-0.1L181,32.7z"/>
	<linearGradient id="SVGID_12_" gradientUnits="userSpaceOnUse" x1="241.1546" y1="80.814" x2="240.1979" y2="24.8283">
		<stop  offset="0" style="stop-color:#FFCD23"/>
		<stop  offset="1" style="stop-color:#FAA41F"/>
	</linearGradient>
	<path class="st15" d="M205.6,27.1h7.8l0.1,19c7.1-8.1,14-18.4,18.9-18.9l5.6,0.1l-0.1,2.4c-1.5-0.1-3,0.1-4.3,1.1
		c-4.5,3.4-8.2,7.4-11.6,11.7c7,14.5,13.1,23.1,18,22.9l14.7-38.2l7.5-1.3l14.7,42.4l-8.5-0.1l-4.8-13.9l-14.9,0.3l-4.8,13.6
		c-1.5,0.2-2.8-0.3-4.2-0.1c-3.7,0.7-7.3,0.7-10.2-0.5c-4.5-2.4-8.7-9.6-12.9-19.1l-3.3,3.8l-0.1,15.8l-8.1,0.1L205.6,27.1
		L205.6,27.1z M256.3,32.9l-6.4,17.6l12.5-0.1L256.3,32.9z"/>
	<linearGradient id="SVGID_13_" gradientUnits="userSpaceOnUse" x1="296.7143" y1="80.4347" x2="295.7339" y2="23.0602">
		<stop  offset="0" style="stop-color:#FFCD23"/>
		<stop  offset="1" style="stop-color:#FAA41F"/>
	</linearGradient>
	<path class="st16" d="M280.7,27.2l-0.3,41.1h8.2l0.1-16.8h2.7c5.2,12.6,10,20.1,21.1,16.6l0.2-2.7c-4.5,0.6-9-5.7-13.5-15.6
		c4.9-2.5,7.6-6.5,7.5-12.3c-0.4-6.8-4.1-10.8-12.2-10.9C289.9,26.4,285.4,26.6,280.7,27.2L280.7,27.2z M288.6,30.7
		c7-0.8,10.2,2.2,9.7,8.8c0.2,5.9-3.5,8.2-9.7,7.9L288.6,30.7z"/>
	<linearGradient id="SVGID_14_" gradientUnits="userSpaceOnUse" x1="362.7372" y1="79.3648" x2="361.7597" y2="22.1633">
		<stop  offset="0" style="stop-color:#FFCD23"/>
		<stop  offset="1" style="stop-color:#FAA41F"/>
	</linearGradient>
	<path class="st17" d="M366.7,26l-7.6,1.4l-15.5,40.9l4.9,0l4.9-13.6l14.8-0.1l4.6,13.7l8.5,0.1L366.7,26L366.7,26z M360.8,32.7
		l6.2,17.9l-12.3-0.1L360.8,32.7z"/>
	<linearGradient id="SVGID_15_" gradientUnits="userSpaceOnUse" x1="328.7578" y1="79.7019" x2="327.7805" y2="22.5103">
		<stop  offset="0" style="stop-color:#FFCD23"/>
		<stop  offset="1" style="stop-color:#FAA41F"/>
	</linearGradient>
	<polygon class="st18" points="312.3,27.1 311.8,31 323.8,31.2 323.9,68.3 331.9,68.3 331.7,31 343.3,31.1 343.9,26.9 	"/>
	<g>
		<path class="st0" d="M395.3,66c0,1-0.2,1.6-0.5,2c-0.3,0.3-0.9,0.5-1.8,0.5c-0.9,0-1.5-0.2-1.8-0.5c-0.3-0.3-0.5-1-0.5-1.9
			c0-1,0.2-1.6,0.5-2c0.3-0.3,1-0.5,1.8-0.5c0.9,0,1.5,0.2,1.8,0.5C395.2,64.5,395.3,65.1,395.3,66z"/>
		<path class="st0" d="M409.9,65.5c0,0.3,0,0.5,0,0.7c0,0.2,0,0.3-0.1,0.5c0,0.1-0.1,0.2-0.1,0.3c0,0.1-0.1,0.2-0.2,0.3
			c-0.1,0.1-0.3,0.3-0.6,0.4c-0.3,0.2-0.6,0.3-1,0.5c-0.4,0.1-0.8,0.2-1.3,0.3c-0.5,0.1-0.9,0.1-1.4,0.1c-1.1,0-2-0.2-2.9-0.5
			c-0.8-0.3-1.5-0.8-2.1-1.5c-0.6-0.7-1-1.5-1.3-2.4c-0.3-0.9-0.4-2-0.4-3.2c0-1.4,0.2-2.6,0.5-3.6c0.4-1,0.8-1.9,1.5-2.5
			c0.6-0.7,1.4-1.2,2.2-1.5c0.9-0.3,1.8-0.5,2.8-0.5c0.4,0,0.8,0,1.2,0.1c0.4,0.1,0.8,0.2,1.1,0.3c0.4,0.1,0.7,0.3,0.9,0.4
			c0.3,0.2,0.5,0.3,0.6,0.4c0.1,0.1,0.2,0.2,0.2,0.3c0,0.1,0.1,0.2,0.1,0.3c0,0.1,0,0.3,0.1,0.5c0,0.2,0,0.4,0,0.7
			c0,0.6-0.1,1-0.2,1.3c-0.1,0.2-0.2,0.4-0.4,0.4c-0.2,0-0.4-0.1-0.6-0.2c-0.2-0.1-0.4-0.3-0.7-0.5c-0.3-0.2-0.6-0.3-1-0.5
			c-0.4-0.1-0.8-0.2-1.3-0.2c-1,0-1.8,0.4-2.4,1.2c-0.5,0.8-0.8,1.9-0.8,3.5c0,0.8,0.1,1.4,0.2,2c0.1,0.6,0.3,1.1,0.6,1.4
			c0.3,0.4,0.6,0.7,1,0.9c0.4,0.2,0.9,0.3,1.4,0.3c0.5,0,1-0.1,1.4-0.2c0.4-0.2,0.7-0.3,1-0.5s0.5-0.4,0.7-0.5
			c0.2-0.2,0.4-0.2,0.5-0.2c0.1,0,0.2,0,0.2,0.1c0.1,0.1,0.1,0.1,0.1,0.3c0,0.1,0.1,0.3,0.1,0.5C409.8,64.9,409.9,65.2,409.9,65.5z"
			/>
		<path class="st0" d="M426.7,60.6c0,1.2-0.2,2.3-0.5,3.3c-0.3,1-0.8,1.8-1.4,2.5c-0.6,0.7-1.4,1.3-2.4,1.6c-1,0.4-2.1,0.6-3.4,0.6
			c-1.2,0-2.3-0.2-3.2-0.5c-0.9-0.3-1.7-0.8-2.3-1.5c-0.6-0.7-1.1-1.5-1.3-2.4c-0.3-1-0.4-2.1-0.4-3.3c0-1.2,0.2-2.3,0.5-3.3
			c0.3-1,0.8-1.8,1.4-2.5c0.6-0.7,1.4-1.3,2.4-1.6c1-0.4,2.1-0.6,3.4-0.6c1.3,0,2.3,0.2,3.3,0.5c0.9,0.3,1.7,0.8,2.3,1.5
			c0.6,0.7,1,1.5,1.3,2.4C426.5,58.3,426.7,59.4,426.7,60.6z M422.6,60.8c0-0.7-0.1-1.3-0.2-1.9c-0.1-0.6-0.3-1.1-0.6-1.5
			c-0.3-0.4-0.6-0.8-1-1c-0.4-0.2-1-0.4-1.6-0.4c-0.6,0-1.1,0.1-1.5,0.3c-0.4,0.2-0.8,0.5-1.1,0.9c-0.3,0.4-0.5,0.9-0.6,1.5
			c-0.1,0.6-0.2,1.2-0.2,2c0,0.7,0.1,1.3,0.2,1.9c0.1,0.6,0.3,1.1,0.6,1.5c0.3,0.4,0.6,0.8,1,1c0.4,0.2,1,0.4,1.6,0.4
			c0.6,0,1.1-0.1,1.6-0.3c0.4-0.2,0.8-0.5,1.1-0.9c0.3-0.4,0.5-0.9,0.6-1.5C422.6,62.2,422.6,61.5,422.6,60.8z"/>
		<path class="st0" d="M452,67.8c0,0.1,0,0.2-0.1,0.3c-0.1,0.1-0.2,0.1-0.3,0.2c-0.1,0.1-0.3,0.1-0.6,0.1c-0.3,0-0.6,0-1,0
			c-0.4,0-0.7,0-1,0c-0.3,0-0.5-0.1-0.6-0.1c-0.2-0.1-0.3-0.1-0.3-0.2c-0.1-0.1-0.1-0.2-0.1-0.3v-8.3c0-0.5,0-0.9-0.1-1.3
			c-0.1-0.4-0.2-0.7-0.4-1c-0.2-0.3-0.4-0.5-0.7-0.6c-0.3-0.2-0.6-0.2-1-0.2c-0.5,0-0.9,0.2-1.4,0.5c-0.5,0.4-1,0.9-1.6,1.6v9.3
			c0,0.1,0,0.2-0.1,0.3c-0.1,0.1-0.2,0.1-0.3,0.2c-0.2,0.1-0.4,0.1-0.6,0.1c-0.3,0-0.6,0-0.9,0c-0.4,0-0.7,0-1,0
			c-0.3,0-0.5-0.1-0.6-0.1c-0.2-0.1-0.3-0.1-0.3-0.2c-0.1-0.1-0.1-0.2-0.1-0.3v-8.3c0-0.5,0-0.9-0.1-1.3c-0.1-0.4-0.2-0.7-0.4-1
			c-0.2-0.3-0.4-0.5-0.7-0.6c-0.3-0.2-0.6-0.2-1-0.2c-0.5,0-1,0.2-1.4,0.5c-0.5,0.4-1,0.9-1.6,1.6v9.3c0,0.1,0,0.2-0.1,0.3
			s-0.2,0.1-0.3,0.2c-0.2,0.1-0.4,0.1-0.6,0.1c-0.3,0-0.6,0-1,0s-0.7,0-1,0c-0.3,0-0.5-0.1-0.6-0.1c-0.2-0.1-0.3-0.1-0.3-0.2
			c-0.1-0.1-0.1-0.2-0.1-0.3v-14c0-0.1,0-0.2,0.1-0.3c0.1-0.1,0.1-0.1,0.3-0.2c0.1-0.1,0.3-0.1,0.5-0.1c0.2,0,0.5,0,0.8,0
			c0.3,0,0.6,0,0.8,0c0.2,0,0.4,0.1,0.5,0.1c0.1,0.1,0.2,0.1,0.3,0.2c0.1,0.1,0.1,0.2,0.1,0.3v1.6c0.8-0.8,1.5-1.5,2.3-1.9
			c0.8-0.4,1.6-0.6,2.4-0.6c0.6,0,1.1,0.1,1.6,0.2c0.5,0.1,0.9,0.3,1.2,0.5c0.4,0.2,0.7,0.5,0.9,0.8c0.3,0.3,0.5,0.7,0.7,1
			c0.4-0.4,0.8-0.8,1.2-1.2c0.4-0.3,0.8-0.6,1.2-0.8c0.4-0.2,0.8-0.4,1.2-0.5c0.4-0.1,0.8-0.1,1.2-0.1c0.9,0,1.7,0.2,2.4,0.5
			c0.6,0.3,1.2,0.7,1.5,1.3s0.7,1.2,0.8,1.9c0.2,0.7,0.3,1.5,0.3,2.3V67.8z"/>
	</g>
</g>
</svg>
