<svg width="15" height="15" viewBox="0 0 15 15" fill="none" xmlns="http://www.w3.org/2000/svg">
<path d="M8.25 8.25H7.875V6.1875C7.875 6.08391 7.79109 6 7.6875 6H7.36922C7.25813 6 7.14961 6.03281 7.05727 6.09445L6.69797 6.33398C6.67748 6.34763 6.65988 6.36518 6.64617 6.38562C6.63246 6.40607 6.62292 6.42902 6.61809 6.45316C6.61326 6.4773 6.61323 6.50216 6.61801 6.52631C6.62279 6.55046 6.63228 6.57343 6.64594 6.59391L6.85406 6.90586C6.86771 6.92635 6.88525 6.94395 6.9057 6.95766C6.92615 6.97136 6.9491 6.98091 6.97324 6.98574C6.99738 6.99057 7.02223 6.9906 7.04638 6.98582C7.07053 6.98104 7.0935 6.97155 7.11398 6.95789L7.125 6.95062V8.25H6.75C6.64641 8.25 6.5625 8.33391 6.5625 8.4375V8.8125C6.5625 8.91609 6.64641 9 6.75 9H8.25C8.35359 9 8.4375 8.91609 8.4375 8.8125V8.4375C8.4375 8.33391 8.35359 8.25 8.25 8.25ZM14.25 3H0.75C0.335859 3 0 3.33586 0 3.75V11.25C0 11.6641 0.335859 12 0.75 12H14.25C14.6641 12 15 11.6641 15 11.25V3.75C15 3.33586 14.6641 3 14.25 3ZM1.125 10.875V9.375C1.95352 9.375 2.625 10.0465 2.625 10.875H1.125ZM1.125 5.625V4.125H2.625C2.625 4.95352 1.95352 5.625 1.125 5.625ZM7.5 10.125C6.25734 10.125 5.25 8.94961 5.25 7.5C5.25 6.05016 6.25734 4.875 7.5 4.875C8.74266 4.875 9.75 6.05016 9.75 7.5C9.75 8.95008 8.74219 10.125 7.5 10.125ZM13.875 10.875H12.375C12.375 10.0465 13.0465 9.375 13.875 9.375V10.875ZM13.875 5.625C13.0465 5.625 12.375 4.95352 12.375 4.125H13.875V5.625Z" fill="#8A8A8A"/>
</svg>
